PathFileType	4	(X/Y/Z)	/Users/mathieubourgeois/Desktop/Analyse/Traitement/Sujet_05/Data/Transformed_Sujet_05_velo_60.trc
DataRate	CameraRate	NumFrames	NumMarkers	Units	OrigDataRate	OrigDataStartFrame	OrigNumFrames
120.000000	120.000000	4	36	mm	120.000000	1203	1925
Frame#	Time	RFHD			RANE			STRN			LANI			LKNE			T10			RHUM			RWRB			C7			LFWT			LTOE			RTOE			LWRA			LBWT			RBWT			RFWT			LKNI			RKNI			RKNE			LANE			RANI			LHEE			RHEE			LHUM			LRAD			RRAD			RWRA			LWRB			LFHD			LBHD			RBHD			RSHO			LSHO			CLAV			LCAR			RCAR			
		X1	Y1	Z1	X2	Y2	Z2	X3	Y3	Z3	X4	Y4	Z4	X5	Y5	Z5	X6	Y6	Z6	X7	Y7	Z7	X8	Y8	Z8	X9	Y9	Z9	X10	Y10	Z10	X11	Y11	Z11	X12	Y12	Z12	X13	Y13	Z13	X14	Y14	Z14	X15	Y15	Z15	X16	Y16	Z16	X17	Y17	Z17	X18	Y18	Z18	X19	Y19	Z19	X20	Y20	Z20	X21	Y21	Z21	X22	Y22	Z22	X23	Y23	Z23	X24	Y24	Z24	X25	Y25	Z25	X26	Y26	Z26	X27	Y27	Z27	X28	Y28	Z28	X29	Y29	Z29	X30	Y30	Z30	X31	Y31	Z31	X32	Y32	Z32	X33	Y33	Z33	X34	Y34	Z34	X35	Y35	Z35	X36	Y36	Z36	

1204	10.025	131.4860229492188	1373.762573242188	115.1333847045898	-181.5036010742188	276.08447265625	190.3723602294921	-219.6123962402344	1161.099975585938	34.44427108764638	-292.3124084472656	569.0855102539062	-54.19146347045906	-67.72837066650389	861.8470458984375	-157.8841857910157	-345.0902709960938	1362.641479492188	52.08697128295886	23.08728599548337	1032.285034179688	201.4347381591796	242.3267822265625	890.5117797851562	249.1255645751953	-112.231086730957	1425.585083007812	33.75962066650381	-368.2005310058594	1085.48583984375	-70.04444885253918	-214.8813934326172	412.1992492675781	-99.48374176025396	-3.024551391601582	182.3583984375	156.0673828125	273.69189453125	932.1806640625	-146.2198028564453	-538.72802734375	1103.844970703125	-1.884754538536205	-525.4065551757812	1105.470458984375	135.2523498535155	-359.3433837890625	1064.338745117188	173.2102508544921	-62.78754043579101	833.3544921875	-50.64361953735357	-161.0074920654297	637.8780517578125	101.0391998291015	-179.7123260498047	678.8004150390625	206.8883819580078	-317.1261901855469	590.2020874023438	-133.242172241211	-143.2552795410156	284.6959533691406	110.9938812255859	-381.7202453613281	587.3053588867188	-84.55601501464852	-236.2332763671875	253.4888763427734	142.1089324951171	19.22158813476564	1046.225463867188	-141.6481323242188	65.95937347412112	1075.47802734375	-187.0754547119141	64.01567840576169	1066.01611328125	251.3238525390624	275.3889770507812	932.65087890625	196.2553100585937	238.2603912353516	884.6103515625	-180.5987243652344	142.7136993408203	1374.214477539062	-32.03194427490241	13.37160778045655	1455.421020507812	-47.78088378906259	-5.885891914367686	1479.069213867188	85.23712158203116	-30.54173278808596	1323.976196289062	172.8355102539062	-67.28842926025389	1334.467895507812	-119.2136459350587	-96.64130401611328	1280.96630859375	33.84177398681631	315.8584899902344	925.812744140625	-223.6025848388672	320.5594482421874	927.8859252929688	285.2628479003906	
1205	10.03333333333333	131.8781280517578	1373.405883789062	114.3617858886718	-188.5914001464844	271.3851318359375	190.2830505371093	-219.4287872314453	1161.009887695312	34.19752502441396	-285.9901733398438	574.7445678710938	-53.74642944335945	-65.50238037109374	870.8681640625	-157.9351196289063	-344.8836975097656	1362.577392578125	51.96960067749011	23.13403701782224	1032.286743164062	201.3159942626953	242.3617248535156	890.4932250976562	249.0639343261718	-111.9793319702148	1425.515258789062	33.25491333007803	-368.1686096191406	1085.562255859375	-69.67478179931652	-206.9290466308594	418.5369262695312	-99.60054016113287	-11.08422470092775	175.650634765625	155.8687286376953	273.66064453125	932.2232055664062	-146.3576354980469	-538.5068969726562	1104.057861328125	-1.890154838562145	-525.1904907226562	1105.480346679688	135.2780151367186	-359.1980285644531	1063.880737304688	173.3881988525389	-57.77975845336913	844.924560546875	-52.60214996337896	-168.2010498046875	633.0451049804688	99.83525848388666	-185.6795196533203	674.2485961914062	205.6703338623046	-310.9454345703125	595.6744995117188	-133.0588073730469	-150.1720733642578	279.63330078125	110.8758697509765	-375.5563659667969	591.9884643554688	-84.12360382080087	-243.4866485595703	249.3950500488281	142.0238037109374	19.15565109252931	1046.21435546875	-141.8847198486329	65.88812255859378	1075.46142578125	-187.3260955810547	64.10283660888669	1066.048217773438	251.1757049560546	275.4210815429688	932.6182861328125	196.2069702148437	238.2558288574219	884.60986328125	-180.6813659667969	142.9136199951172	1373.778198242188	-32.83464431762702	13.64709758758545	1455.110595703125	-48.40174102783212	-5.418750762939464	1478.857299804688	84.60044097900382	-30.27394104003908	1324.028564453125	172.3139038085937	-67.38549041748045	1334.4521484375	-119.7399444580079	-96.54080200195312	1280.897338867188	33.44380187988272	315.84033203125	925.7913208007812	-223.7730102539063	320.5828247070312	927.8901977539062	285.191162109375	
1206	10.04166666666667	132.3024139404297	1372.838500976562	113.7278442382812	-195.9827423095703	267.1742553710938	190.3161621093749	-219.2982940673828	1160.922607421875	33.9837646484374	-279.3619995117188	580.0720825195312	-53.51696777343757	-62.93675231933592	878.802001953125	-158.0024719238282	-344.7039489746094	1362.552734375	51.80290603637683	23.16847229003904	1032.290649414062	201.137954711914	242.3440856933593	890.5033569335938	249.063491821289	-111.7660980224609	1425.460693359375	32.78042984008779	-368.2176818847656	1085.632568359375	-69.47713470458996	-198.1300659179688	425.1354675292969	-99.82287597656256	-19.44969367980959	169.4952392578125	155.6799774169922	273.65234375	932.28125	-146.4610290527344	-538.3524780273438	1104.44677734375	-1.888132691383495	-525.0382080078125	1105.553100585938	135.213653564453	-359.1080627441406	1063.50927734375	173.5601501464843	-54.12469100952148	852.0862426757812	-50.80789947509771	-173.3981475830078	629.2221069335938	98.51990509033197	-191.3867492675782	670.1885375976562	204.5391998291015	-304.6568908691406	600.5477905273438	-132.7975769042969	-157.5092010498047	275.1103515625	110.7938003540039	-369.1948852539062	595.9213256835938	-83.88270568847665	-251.057601928711	245.7886352539062	142.0635070800781	19.11782073974611	1046.232666015625	-142.1201324462891	65.84632110595706	1075.438598632812	-187.5802001953126	64.03474426269528	1066.310668945312	251.0992889404296	275.4247131347656	932.6071166992188	196.1745910644531	238.2485504150391	884.615478515625	-180.7371826171875	143.1161651611328	1373.285034179688	-33.59798431396491	13.9353723526001	1454.7802734375	-49.09479141235361	-4.933901309967052	1478.628662109375	83.9634475708007	-30.05903816223147	1324.085815429688	171.7855224609374	-67.45010375976561	1334.463256835938	-120.2496337890626	-96.43671417236328	1280.798828125	33.01781845092764	315.8995056152344	925.7046508789062	-223.854476928711	320.5650634765624	927.88330078125	285.1636962890625	
1207	10.05	132.5811767578125	1372.500366210938	112.8964920043945	-203.6154479980469	263.4774475097656	190.3234558105468	-219.2262573242188	1160.833374023438	33.79121780395498	-272.7090148925781	584.8276977539062	-53.40089416503913	-60.64870452880857	886.504638671875	-158.0261383056641	-344.5568237304688	1362.54296875	51.57517623901354	23.17773246765134	1032.313110351562	200.9147644042968	242.2861938476562	890.5660400390625	249.0888671875	-111.5683212280273	1425.380126953125	32.32784652709951	-368.4305725097656	1085.716186523438	-69.26146697998058	-188.7223052978516	431.3369140625	-99.83233642578131	-28.136043548584	163.8708801269531	155.4742279052734	273.6352233886719	932.3173828125	-146.5441284179688	-538.27392578125	1104.67041015625	-1.963382959365978	-524.9563598632812	1105.692504882812	135.1109161376952	-359.1029357910156	1063.214111328125	173.6507568359374	-52.01231384277343	859.5234375	-50.28919601440435	-180.6430053710938	624.6888427734375	97.26377868652337	-196.7356414794922	666.6016845703125	203.4222869873046	-298.3023376464844	604.90185546875	-132.5895996093751	-165.1824340820312	270.9602966308594	110.7647247314453	-362.6638488769531	598.951171875	-84.0123825073243	-258.9913635253906	242.7433013916016	142.2706909179687	19.10325241088869	1046.223876953125	-142.3848571777344	65.81752014160159	1075.408569335938	-187.8509216308594	64.01692199707028	1066.336303710938	250.9158477783203	275.4193420410156	932.5930786132812	196.143798828125	238.253158569336	884.626708984375	-180.795639038086	143.3075256347656	1372.758178710938	-34.3153381347657	14.21511745452881	1454.473876953125	-49.6668243408204	-4.475359916687021	1478.390258789062	83.39920806884757	-29.91680526733401	1324.173828125	171.3384246826171	-67.54655456542967	1334.463745117188	-120.6933212280274	-96.36400604248047	1280.730102539062	32.65988159179678	315.9774475097656	925.5557250976562	-223.8704223632813	320.2933349609374	928.1265258789062	285.3723754882812	
